<?xml version="1.0" encoding="UTF-8"?>
<svg id="Layer_1" data-name="Layer 1" xmlns="http://www.w3.org/2000/svg" viewBox="0 0 551.93 200">
  <defs>
    <style>
      .cls-1 {
        fill: #284150;
        stroke-width: 0px;
      }
    </style>
  </defs>
  <g>
    <path class="cls-1" d="M166.94,0C141.92,0,116.07,15.8,116.07,53.67s25.99,53.66,50.86,53.66,50.72-15.8,50.72-53.66S191.96,0,166.94,0ZM166.94,84.97c-14.67,0-22.91-12.31-22.91-31.3s8.38-30.6,22.91-30.6,22.77,11.6,22.77,30.6-8.1,31.3-22.77,31.3Z"/>
    <path class="cls-1" d="M461.95,82.59h0s0-.01-.01-.02v.02Z"/>
    <path class="cls-1" d="M512.39,42.06c-10.2-2.52-18.3-5.03-18.3-11.88,0-4.89,4.06-7.54,12.02-7.54,8.94,0,19.01,6,24.73,12.99l18.73-15.37c-8.25-10.06-21.38-20.26-43.32-20.26-23.48,0-39.4,11.6-39.4,32.69,0,23.47,22.49,27.8,39.4,32.14,10.21,2.51,18.45,5.17,18.45,11.6s-6.42,8.95-14.95,8.95c-10.76,0-20.96-5.73-27.11-15.65l-20.68,12.86c8.81,14.11,22.92,24.71,46.52,24.71,31.86,0,43.46-16.34,43.46-32.83,0-23.19-22.63-28.36-39.54-32.42Z"/>
    <path class="cls-1" d="M48.63,84.97c-13.84,0-20.69-12.3-20.69-31.3s6.57-30.6,20.4-30.6c7.69,0,11.89,4.01,14.67,9.92h29.19C87.89,14.54,76.71,0,48.49,0,22.22,0,0,15.8,0,53.67s21.24,53.66,48.49,53.66,39.64-14.66,44.83-35.01h-28.26c-3.14,8.29-7.74,12.65-16.43,12.65Z"/>
    <path class="cls-1" d="M273.48,48.41v-23.58h12c11.43,0,16.46,3.07,16.46,11.72s-5.02,11.86-16.46,11.86h-12l27.62,57.05h29.57l-21.9-39.47c13.54-4.6,20.37-13.96,20.37-30.13h0c0-24.84-16.18-33.63-42.68-33.63h-40.32v103.22h27.34v-57.04Z"/>
    <polygon class="cls-1" points="434.23 83 388.76 83 388.76 63.89 412.83 63.89 412.83 42.13 388.76 42.13 388.76 25.39 434.51 25.39 434.51 2.23 360.85 2.23 360.85 105.46 434.23 105.46 434.23 83"/>
  </g>
  <g>
    <path class="cls-1" d="M84.65,175.17c0,3.15-.58,5.49-1.73,7.01-1.15,1.48-2.97,2.23-5.46,2.23s-4.4-.76-5.62-2.28c-1.19-1.52-1.78-3.84-1.78-6.96v-15.81h-5.34v15.81c0,3.12-.61,5.44-1.84,6.96-1.19,1.52-3.04,2.28-5.57,2.28s-4.36-.74-5.51-2.23c-1.15-1.52-1.73-3.86-1.73-7.01v-15.81h-5.34v16.31c0,4.34,1.06,7.68,3.17,10.02,2.15,2.34,5.29,3.51,9.41,3.51,2.45,0,4.49-.43,6.12-1.28,1.67-.89,2.99-2.23,3.95-4.01,1.86,3.53,5.2,5.29,10.02,5.29,4.08,0,7.2-1.17,9.35-3.51s3.23-5.68,3.23-10.02v-16.31h-5.34v15.81Z"/>
    <path class="cls-1" d="M121.36,163.82c-1.19-1.56-2.67-2.73-4.45-3.51-1.78-.82-3.73-1.23-5.85-1.23-2.86,0-5.42.63-7.68,1.89-2.26,1.26-4.04,3.03-5.34,5.29-1.26,2.26-1.89,4.88-1.89,7.85s.63,5.6,1.89,7.9c1.3,2.26,3.08,4.03,5.34,5.29,2.26,1.26,4.83,1.89,7.68,1.89,2.19,0,4.19-.43,6.01-1.28,1.82-.85,3.32-2.1,4.51-3.73v4.68h5.12v-29.5h-5.34v4.45ZM120.14,179.57c-.85,1.56-2.04,2.78-3.56,3.67-1.52.85-3.21,1.28-5.07,1.28s-3.6-.43-5.12-1.28c-1.48-.89-2.67-2.12-3.56-3.67-.85-1.6-1.28-3.41-1.28-5.46s.43-3.84,1.28-5.4c.89-1.6,2.08-2.82,3.56-3.67,1.52-.85,3.23-1.28,5.12-1.28s3.54.43,5.07,1.28c1.52.85,2.71,2.08,3.56,3.67.85,1.56,1.28,3.36,1.28,5.4s-.43,3.86-1.28,5.46Z"/>
    <path class="cls-1" d="M151.69,173.45c-1.45-.48-3.36-.93-5.73-1.34-1.78-.33-3.17-.63-4.17-.89-.97-.26-1.78-.67-2.45-1.22-.67-.56-1-1.32-1-2.28,0-1.23.59-2.21,1.78-2.95,1.19-.74,2.91-1.11,5.18-1.11,3.26,0,6.1.78,8.52,2.34l2.28-4.23c-1.26-.82-2.88-1.46-4.84-1.95-1.97-.48-3.93-.72-5.9-.72-3.75,0-6.73.82-8.96,2.45-2.23,1.6-3.34,3.73-3.34,6.4,0,2.08.54,3.69,1.61,4.84,1.08,1.15,2.36,1.97,3.84,2.45,1.52.48,3.47.91,5.84,1.28,1.74.3,3.08.58,4.01.84.97.22,1.76.59,2.39,1.11.63.52.95,1.23.95,2.12,0,2.67-2.34,4.01-7.01,4.01-1.89,0-3.77-.28-5.62-.84-1.85-.56-3.43-1.3-4.73-2.23l-2.23,4.23c1.26,1,3.01,1.84,5.23,2.51,2.23.63,4.55.95,6.96.95,3.93,0,7.03-.78,9.3-2.34,2.3-1.6,3.45-3.73,3.45-6.4,0-2-.52-3.56-1.56-4.68-1.04-1.11-2.3-1.89-3.79-2.34Z"/>
    <path class="cls-1" d="M172.4,184.69c-1.48,0-2.64-.43-3.45-1.28-.78-.85-1.17-2.08-1.17-3.67v-15.98h8.46v-4.4h-8.46v-6.46h-5.34v27.05c0,2.97.82,5.25,2.45,6.85,1.63,1.6,3.93,2.39,6.9,2.39,1.22,0,2.41-.17,3.56-.5,1.15-.37,2.11-.89,2.9-1.56l-1.67-3.84c-1.15.93-2.54,1.39-4.17,1.39Z"/>
    <path class="cls-1" d="M207.31,165.99c-1.3-2.19-3.04-3.88-5.23-5.07-2.19-1.22-4.62-1.84-7.29-1.84-2.82,0-5.36.65-7.63,1.95-2.23,1.26-3.99,3.04-5.29,5.34-1.26,2.3-1.89,4.88-1.89,7.74s.65,5.49,1.95,7.79c1.34,2.3,3.21,4.1,5.62,5.4,2.41,1.26,5.18,1.89,8.29,1.89,2.45,0,4.66-.41,6.62-1.23,2-.82,3.66-2,4.95-3.56l-2.9-3.45c-2.15,2.38-4.99,3.56-8.52,3.56-2.49,0-4.62-.56-6.4-1.67-1.74-1.11-2.99-2.69-3.73-4.73l23.44-4.56c-.04-2.86-.71-5.38-2-7.57ZM185.16,174.39v-.56c0-2.04.41-3.82,1.22-5.34.82-1.56,1.95-2.77,3.4-3.62,1.48-.85,3.15-1.28,5.01-1.28,2.34,0,4.34.67,6.01,2s2.75,3.08,3.23,5.23l-18.87,3.56Z"/>
    <path class="cls-1" d="M266.66,159.08c-2.49,0-4.73.48-6.74,1.45-1.97.97-3.51,2.3-4.62,4.01-.97-1.78-2.34-3.14-4.12-4.06-1.78-.93-3.82-1.39-6.12-1.39s-4.21.41-5.96,1.23c-1.74.78-3.15,1.93-4.23,3.45v-4.4h-5.12v29.5h5.34v-15.2c0-3.15.8-5.57,2.39-7.24,1.59-1.71,3.75-2.56,6.46-2.56,2.45,0,4.32.72,5.62,2.17,1.34,1.45,2,3.6,2,6.46v16.37h5.34v-15.2c0-3.15.8-5.57,2.39-7.24,1.6-1.71,3.75-2.56,6.46-2.56,2.45,0,4.32.72,5.62,2.17,1.34,1.45,2,3.6,2,6.46v16.37h5.34v-16.98c0-4.23-1.09-7.42-3.28-9.58-2.15-2.15-5.08-3.23-8.79-3.23Z"/>
    <path class="cls-1" d="M310.23,163.82c-1.19-1.56-2.67-2.73-4.45-3.51-1.78-.82-3.73-1.23-5.85-1.23-2.86,0-5.42.63-7.68,1.89-2.26,1.26-4.04,3.03-5.34,5.29-1.26,2.26-1.89,4.88-1.89,7.85s.63,5.6,1.89,7.9c1.3,2.26,3.08,4.03,5.34,5.29,2.26,1.26,4.82,1.89,7.68,1.89,2.19,0,4.19-.43,6.01-1.28,1.82-.85,3.32-2.1,4.51-3.73v4.68h5.12v-29.5h-5.34v4.45ZM309.01,179.57c-.85,1.56-2.04,2.78-3.56,3.67-1.52.85-3.21,1.28-5.07,1.28s-3.6-.43-5.12-1.28c-1.48-.89-2.67-2.12-3.56-3.67-.85-1.6-1.28-3.41-1.28-5.46s.43-3.84,1.28-5.4c.89-1.6,2.08-2.82,3.56-3.67,1.52-.85,3.23-1.28,5.12-1.28s3.54.43,5.07,1.28c1.52.85,2.71,2.08,3.56,3.67.85,1.56,1.28,3.36,1.28,5.4s-.43,3.86-1.28,5.46Z"/>
    <path class="cls-1" d="M340.45,159.08c-2.34,0-4.43.41-6.29,1.23-1.82.82-3.26,1.99-4.34,3.51v-4.45h-5.12v29.5h5.34v-15.2c0-3.15.83-5.57,2.51-7.24,1.67-1.71,3.95-2.56,6.85-2.56,2.56,0,4.53.72,5.9,2.17,1.37,1.45,2.06,3.6,2.06,6.46v16.37h5.34v-16.98c0-4.19-1.11-7.37-3.34-9.52-2.19-2.19-5.16-3.29-8.91-3.29Z"/>
    <path class="cls-1" d="M384.24,163.82c-1.19-1.56-2.67-2.73-4.45-3.51-1.78-.82-3.73-1.23-5.84-1.23-2.86,0-5.42.63-7.68,1.89-2.26,1.26-4.05,3.03-5.34,5.29-1.26,2.26-1.89,4.88-1.89,7.85s.63,5.6,1.89,7.9c1.3,2.26,3.08,4.03,5.34,5.29,2.26,1.26,4.83,1.89,7.68,1.89,2.19,0,4.19-.43,6.01-1.28,1.82-.85,3.32-2.1,4.51-3.73v4.68h5.12v-29.5h-5.34v4.45ZM383.02,179.57c-.85,1.56-2.04,2.78-3.56,3.67-1.52.85-3.21,1.28-5.07,1.28s-3.6-.43-5.12-1.28c-1.48-.89-2.67-2.12-3.56-3.67-.85-1.6-1.28-3.41-1.28-5.46s.43-3.84,1.28-5.4c.89-1.6,2.08-2.82,3.56-3.67,1.52-.85,3.23-1.28,5.12-1.28s3.54.43,5.07,1.28c1.52.85,2.71,2.08,3.56,3.67.85,1.56,1.28,3.36,1.28,5.4s-.43,3.86-1.28,5.46Z"/>
    <path class="cls-1" d="M421.86,163.93c-1.22-1.6-2.8-2.8-4.73-3.62-1.89-.82-3.95-1.23-6.18-1.23-2.82,0-5.38.59-7.68,1.78-2.26,1.19-4.04,2.88-5.34,5.07-1.3,2.15-1.95,4.62-1.95,7.4s.65,5.27,1.95,7.46c1.3,2.15,3.08,3.84,5.34,5.07,2.3,1.19,4.86,1.78,7.68,1.78,2.15,0,4.14-.37,5.96-1.11,1.86-.78,3.41-1.93,4.68-3.45v2.34c0,3.34-.84,5.83-2.51,7.46-1.63,1.63-4.18,2.45-7.63,2.45-2.15,0-4.25-.35-6.29-1.06-2-.67-3.69-1.6-5.07-2.78l-2.56,4.12c1.56,1.41,3.6,2.49,6.12,3.23,2.52.78,5.18,1.17,7.96,1.17,5.08,0,8.91-1.24,11.47-3.73,2.56-2.45,3.84-6.25,3.84-11.41v-25.49h-5.07v4.56ZM420.35,178.35c-.85,1.45-2.06,2.58-3.62,3.4-1.52.82-3.25,1.22-5.18,1.22s-3.73-.41-5.29-1.22c-1.52-.82-2.73-1.95-3.62-3.4-.85-1.48-1.28-3.15-1.28-5.01,0-2.86.95-5.16,2.84-6.9,1.89-1.78,4.34-2.67,7.35-2.67s5.4.89,7.29,2.67c1.89,1.74,2.84,4.04,2.84,6.9,0,1.86-.45,3.52-1.34,5.01Z"/>
    <path class="cls-1" d="M460.74,165.99c-1.3-2.19-3.04-3.88-5.23-5.07-2.19-1.22-4.62-1.84-7.29-1.84-2.82,0-5.36.65-7.63,1.95-2.23,1.26-3.99,3.04-5.29,5.34-1.26,2.3-1.89,4.88-1.89,7.74s.65,5.49,1.95,7.79c1.34,2.3,3.21,4.1,5.62,5.4,2.41,1.26,5.18,1.89,8.29,1.89,2.45,0,4.66-.41,6.62-1.23,2-.82,3.66-2,4.95-3.56l-2.89-3.45c-2.15,2.38-4.99,3.56-8.52,3.56-2.49,0-4.62-.56-6.4-1.67-1.74-1.11-2.99-2.69-3.73-4.73l23.43-4.56c-.04-2.86-.7-5.38-2-7.57ZM438.59,174.39v-.56c0-2.04.41-3.82,1.23-5.34.82-1.56,1.95-2.77,3.4-3.62,1.48-.85,3.15-1.28,5.01-1.28,2.34,0,4.34.67,6.01,2s2.75,3.08,3.23,5.23l-18.87,3.56Z"/>
    <path class="cls-1" d="M474.35,164.32v-4.95h-5.12v29.5h5.34v-14.7c0-3.19.82-5.64,2.45-7.35,1.67-1.74,3.95-2.62,6.85-2.62.52,0,.93.02,1.23.05v-5.18c-2.6,0-4.81.45-6.62,1.34-1.82.89-3.19,2.19-4.12,3.9Z"/>
    <path class="cls-1" d="M506.77,173.45c-1.45-.48-3.36-.93-5.73-1.34-1.78-.33-3.17-.63-4.17-.89-.97-.26-1.78-.67-2.45-1.22-.67-.56-1-1.32-1-2.28,0-1.23.59-2.21,1.78-2.95,1.19-.74,2.91-1.11,5.18-1.11,3.27,0,6.1.78,8.52,2.34l2.28-4.23c-1.26-.82-2.88-1.46-4.84-1.95-1.97-.48-3.93-.72-5.9-.72-3.75,0-6.74.82-8.96,2.45-2.23,1.6-3.34,3.73-3.34,6.4,0,2.08.54,3.69,1.61,4.84,1.08,1.15,2.36,1.97,3.84,2.45,1.52.48,3.47.91,5.84,1.28,1.74.3,3.08.58,4.01.84.97.22,1.76.59,2.39,1.11.63.52.95,1.23.95,2.12,0,2.67-2.34,4.01-7.01,4.01-1.89,0-3.77-.28-5.62-.84-1.86-.56-3.43-1.3-4.73-2.23l-2.23,4.23c1.26,1,3.01,1.84,5.23,2.51,2.23.63,4.55.95,6.96.95,3.93,0,7.03-.78,9.3-2.34,2.3-1.6,3.45-3.73,3.45-6.4,0-2-.52-3.56-1.56-4.68-1.04-1.11-2.3-1.89-3.78-2.34Z"/>
  </g>
</svg>